<?xml version="1.0" encoding="UTF-8" standalone="no"?>
<!DOCTYPE svg PUBLIC "-//W3C//DTD SVG 1.1//EN" "http://www.w3.org/Graphics/SVG/1.1/DTD/svg11.dtd">

<!-- Generated by graphviz version 2.43.0 (0)
 -->
<!-- Title: G Pages: 1 -->
<svg height="489pt" viewbox="0.00 0.00 799.00 489.00" width="799pt" xmlns="http://www.w3.org/2000/svg" xmlns:xlink="http://www.w3.org/1999/xlink">
<g class="graph" id="graph0" transform="scale(1 1) rotate(0) translate(4 485)">
<title>G</title>
<polygon fill="white" points="-4,4 -4,-485 795,-485 795,4 -4,4" stroke="transparent"></polygon>
<!-- node1 -->
<g class="node" id="node1">
<title>node1</title>
<path d="M92,-38C92,-38 12,-38 12,-38 6,-38 0,-32 0,-26 0,-26 0,-12 0,-12 0,-6 6,0 12,0 12,0 92,0 92,0 98,0 104,-6 104,-12 104,-12 104,-26 104,-26 104,-32 98,-38 92,-38" fill="none" stroke="black"></path>
<text font-family="STIX Two Math" font-size="14.00" text-anchor="middle" x="52" y="-22.8">FunctionNode</text>
<text font-family="STIX Two Math" font-size="14.00" text-anchor="middle" x="52" y="-7.8">f ≤ r</text>
</g>
<!-- node2 -->
<g class="node" id="node2">
<title>node2</title>
<path d="M214,-38C214,-38 134,-38 134,-38 128,-38 122,-32 122,-26 122,-26 122,-12 122,-12 122,-6 128,0 134,0 134,0 214,0 214,0 220,0 226,-6 226,-12 226,-12 226,-26 226,-26 226,-32 220,-38 214,-38" fill="none" stroke="black"></path>
<text font-family="STIX Two Math" font-size="14.00" text-anchor="middle" x="174" y="-22.8">FunctionNode</text>
<text font-family="STIX Two Math" font-size="14.00" text-anchor="middle" x="174" y="-7.8">f ≤ r</text>
</g>
<!-- node3 -->
<g class="node" id="node3">
<title>node3</title>
<ellipse cx="174" cy="-168" fill="green" rx="27" ry="18" stroke="black"></ellipse>
<text font-family="STIX Two Math" font-size="14.00" text-anchor="middle" x="174" y="-164.3">par</text>
</g>
<!-- node3&#45;&gt;node1 -->
<g class="edge" id="edge1">
<title>node3-&gt;node1</title>
<path d="M151.13,-158.07C137.86,-152 121.54,-142.9 110,-131 83.51,-103.68 66.14,-61.84 57.79,-38.1" fill="none" stroke="black"></path>
<text font-family="STIX Two Math" font-size="14.00" text-anchor="middle" x="140" y="-104.8">SB([3,21])</text>
<text font-family="STIX Two Math" font-size="14.00" text-anchor="middle" x="140" y="-89.8">↓</text>
<text font-family="STIX Two Math" font-size="14.00" text-anchor="middle" x="140" y="-74.8">SB([3,21])</text>
</g>
<!-- node3&#45;&gt;node2 -->
<g class="edge" id="edge2">
<title>node3-&gt;node2</title>
<path d="M174,-149.85C174,-121.98 174,-67.09 174,-38.42" fill="none" stroke="black"></path>
<text font-family="STIX Two Math" font-size="14.00" text-anchor="middle" x="204" y="-104.8">SB([6,27])</text>
<text font-family="STIX Two Math" font-size="14.00" text-anchor="middle" x="204" y="-89.8">↓</text>
<text font-family="STIX Two Math" font-size="14.00" text-anchor="middle" x="204" y="-74.8">SB([6,27])</text>
</g>
<!-- node4 -->
<g class="node" id="node4">
<title>node4</title>
<polygon fill="gray" points="333.5,-187 256.5,-187 256.5,-149 333.5,-149 333.5,-187" stroke="black"></polygon>
<text font-family="STIX Two Math" font-size="14.00" text-anchor="middle" x="295" y="-171.8">labeler</text>
<text font-family="STIX Two Math" font-size="14.00" text-anchor="middle" x="295" y="-156.8">('quality',)</text>
</g>
<!-- node5 -->
<g class="node" id="node5">
<title>node5</title>
<path d="M333.5,-38C333.5,-38 256.5,-38 256.5,-38 250.5,-38 244.5,-32 244.5,-26 244.5,-26 244.5,-12 244.5,-12 244.5,-6 250.5,0 256.5,0 256.5,0 333.5,0 333.5,0 339.5,0 345.5,-6 345.5,-12 345.5,-12 345.5,-26 345.5,-26 345.5,-32 339.5,-38 333.5,-38" fill="none" stroke="black"></path>
<text font-family="STIX Two Math" font-size="14.00" text-anchor="middle" x="295" y="-22.8">DP_Catalog</text>
<text font-family="STIX Two Math" font-size="14.00" text-anchor="middle" x="295" y="-7.8">catalogue(f, r)</text>
</g>
<!-- node4&#45;&gt;node5 -->
<g class="edge" id="edge3">
<title>node4-&gt;node5</title>
<path d="M295,-148.97C295,-120.76 295,-66.48 295,-38.17" fill="none" stroke="black"></path>
<text font-family="STIX Two Math" font-size="14.00" text-anchor="middle" x="364" y="-119.8">(SB([3,21])</text>
<text font-family="STIX Two Math" font-size="14.00" text-anchor="middle" x="364" y="-104.8"> × SB([6,27]))</text>
<text font-family="STIX Two Math" font-size="14.00" text-anchor="middle" x="364" y="-89.8">↓</text>
<text font-family="STIX Two Math" font-size="14.00" text-anchor="middle" x="364" y="-74.8">(()</text>
<text font-family="STIX Two Math" font-size="14.00" text-anchor="middle" x="364" y="-59.8"> × (P_C_F_FiniteSub))</text>
</g>
<!-- node6 -->
<g class="node" id="node6">
<title>node6</title>
<polygon fill="gray" points="492.5,-187 419.5,-187 419.5,-149 492.5,-149 492.5,-187" stroke="black"></polygon>
<text font-family="STIX Two Math" font-size="14.00" text-anchor="middle" x="456" y="-171.8">labeler</text>
<text font-family="STIX Two Math" font-size="14.00" text-anchor="middle" x="456" y="-156.8">('layout',)</text>
</g>
<!-- node7 -->
<g class="node" id="node7">
<title>node7</title>
<path d="M494.5,-38C494.5,-38 417.5,-38 417.5,-38 411.5,-38 405.5,-32 405.5,-26 405.5,-26 405.5,-12 405.5,-12 405.5,-6 411.5,0 417.5,0 417.5,0 494.5,0 494.5,0 500.5,0 506.5,-6 506.5,-12 506.5,-12 506.5,-26 506.5,-26 506.5,-32 500.5,-38 494.5,-38" fill="none" stroke="black"></path>
<text font-family="STIX Two Math" font-size="14.00" text-anchor="middle" x="456" y="-22.8">DP_Catalog</text>
<text font-family="STIX Two Math" font-size="14.00" text-anchor="middle" x="456" y="-7.8">catalogue(f, r)</text>
</g>
<!-- node6&#45;&gt;node7 -->
<g class="edge" id="edge4">
<title>node6-&gt;node7</title>
<path d="M456,-148.97C456,-120.76 456,-66.48 456,-38.17" fill="none" stroke="black"></path>
<text font-family="STIX Two Math" font-size="14.00" text-anchor="middle" x="525" y="-119.8">(()</text>
<text font-family="STIX Two Math" font-size="14.00" text-anchor="middle" x="525" y="-104.8"> × (P_C_F_FiniteSub))</text>
<text font-family="STIX Two Math" font-size="14.00" text-anchor="middle" x="525" y="-89.8">↓</text>
<text font-family="STIX Two Math" font-size="14.00" text-anchor="middle" x="525" y="-74.8">(SB({0, 3, 6})</text>
<text font-family="STIX Two Math" font-size="14.00" text-anchor="middle" x="525" y="-59.8"> × SB({0, 3}))</text>
</g>
<!-- node8 -->
<g class="node" id="node8">
<title>node8</title>
<path d="M657,-38C657,-38 577,-38 577,-38 571,-38 565,-32 565,-26 565,-26 565,-12 565,-12 565,-6 571,0 577,0 577,0 657,0 657,0 663,0 669,-6 669,-12 669,-12 669,-26 669,-26 669,-32 663,-38 657,-38" fill="none" stroke="black"></path>
<text font-family="STIX Two Math" font-size="14.00" text-anchor="middle" x="617" y="-22.8">ResourceNode</text>
<text font-family="STIX Two Math" font-size="14.00" text-anchor="middle" x="617" y="-7.8">f ≤ r</text>
</g>
<!-- node9 -->
<g class="node" id="node9">
<title>node9</title>
<path d="M779,-38C779,-38 699,-38 699,-38 693,-38 687,-32 687,-26 687,-26 687,-12 687,-12 687,-6 693,0 699,0 699,0 779,0 779,0 785,0 791,-6 791,-12 791,-12 791,-26 791,-26 791,-32 785,-38 779,-38" fill="none" stroke="black"></path>
<text font-family="STIX Two Math" font-size="14.00" text-anchor="middle" x="739" y="-22.8">ResourceNode</text>
<text font-family="STIX Two Math" font-size="14.00" text-anchor="middle" x="739" y="-7.8">f ≤ r</text>
</g>
<!-- node10 -->
<g class="node" id="node10">
<title>node10</title>
<ellipse cx="617" cy="-168" fill="green" rx="27" ry="18" stroke="black"></ellipse>
<text font-family="STIX Two Math" font-size="14.00" text-anchor="middle" x="617" y="-164.3">par</text>
</g>
<!-- node10&#45;&gt;node8 -->
<g class="edge" id="edge5">
<title>node10-&gt;node8</title>
<path d="M617,-149.85C617,-121.98 617,-67.09 617,-38.42" fill="none" stroke="black"></path>
<text font-family="STIX Two Math" font-size="14.00" text-anchor="middle" x="652" y="-104.8">SB({0, 3, 6})</text>
<text font-family="STIX Two Math" font-size="14.00" text-anchor="middle" x="652" y="-89.8">↓</text>
<text font-family="STIX Two Math" font-size="14.00" text-anchor="middle" x="652" y="-74.8">SB({0, 3, 6})</text>
</g>
<!-- node10&#45;&gt;node9 -->
<g class="edge" id="edge6">
<title>node10-&gt;node9</title>
<path d="M641.33,-160.07C657.23,-154.46 677.47,-145.15 691,-131 716.39,-104.45 729.5,-62.33 735.25,-38.33" fill="none" stroke="black"></path>
<text font-family="STIX Two Math" font-size="14.00" text-anchor="middle" x="758" y="-104.8">SB({0, 3})</text>
<text font-family="STIX Two Math" font-size="14.00" text-anchor="middle" x="758" y="-89.8">↓</text>
<text font-family="STIX Two Math" font-size="14.00" text-anchor="middle" x="758" y="-74.8">SB({0, 3})</text>
</g>
<!-- node11 -->
<g class="node" id="node11">
<title>node11</title>
<ellipse cx="375" cy="-316" fill="yellow" rx="32.49" ry="18" stroke="black"></ellipse>
<text font-family="STIX Two Math" font-size="14.00" text-anchor="middle" x="375" y="-312.3">series</text>
</g>
<!-- node11&#45;&gt;node3 -->
<g class="edge" id="edge7">
<title>node11-&gt;node3</title>
<path d="M342.81,-312.67C297.98,-308.77 219.98,-299.34 200,-280 174.4,-255.22 171.95,-210.41 172.75,-185.99" fill="none" stroke="black"></path>
<text font-family="STIX Two Math" font-size="14.00" text-anchor="middle" x="240" y="-268.8">(SB([3,21])</text>
<text font-family="STIX Two Math" font-size="14.00" text-anchor="middle" x="240" y="-253.8"> × SB([6,27]))</text>
<text font-family="STIX Two Math" font-size="14.00" text-anchor="middle" x="240" y="-238.8">↓</text>
<text font-family="STIX Two Math" font-size="14.00" text-anchor="middle" x="240" y="-223.8">(SB([3,21])</text>
<text font-family="STIX Two Math" font-size="14.00" text-anchor="middle" x="240" y="-208.8"> × SB([6,27]))</text>
</g>
<!-- node11&#45;&gt;node4 -->
<g class="edge" id="edge8">
<title>node11-&gt;node4</title>
<path d="M344.21,-309.75C326.91,-305.07 306.71,-296.3 296,-280 277.58,-251.98 283.74,-210.77 289.57,-187.24" fill="none" stroke="black"></path>
<text font-family="STIX Two Math" font-size="14.00" text-anchor="middle" x="365" y="-268.8">(SB([3,21])</text>
<text font-family="STIX Two Math" font-size="14.00" text-anchor="middle" x="365" y="-253.8"> × SB([6,27]))</text>
<text font-family="STIX Two Math" font-size="14.00" text-anchor="middle" x="365" y="-238.8">↓</text>
<text font-family="STIX Two Math" font-size="14.00" text-anchor="middle" x="365" y="-223.8">(()</text>
<text font-family="STIX Two Math" font-size="14.00" text-anchor="middle" x="365" y="-208.8"> × (P_C_F_FiniteSub))</text>
</g>
<!-- node11&#45;&gt;node6 -->
<g class="edge" id="edge9">
<title>node11-&gt;node6</title>
<path d="M401.18,-305.31C412.94,-299.67 425.95,-291.38 434,-280 453.74,-252.09 456.81,-210.84 456.75,-187.28" fill="none" stroke="black"></path>
<text font-family="STIX Two Math" font-size="14.00" text-anchor="middle" x="526" y="-268.8">(()</text>
<text font-family="STIX Two Math" font-size="14.00" text-anchor="middle" x="526" y="-253.8"> × (P_C_F_FiniteSub))</text>
<text font-family="STIX Two Math" font-size="14.00" text-anchor="middle" x="526" y="-238.8">↓</text>
<text font-family="STIX Two Math" font-size="14.00" text-anchor="middle" x="526" y="-223.8">(SB({0, 3, 6})</text>
<text font-family="STIX Two Math" font-size="14.00" text-anchor="middle" x="526" y="-208.8"> × SB({0, 3}))</text>
</g>
<!-- node11&#45;&gt;node10 -->
<g class="edge" id="edge10">
<title>node11-&gt;node10</title>
<path d="M407.78,-314.24C462.44,-312.27 568.81,-305.21 595,-280 620.47,-255.47 621,-210.56 619.07,-186.06" fill="none" stroke="black"></path>
<text font-family="STIX Two Math" font-size="14.00" text-anchor="middle" x="658" y="-268.8">(SB({0, 3, 6})</text>
<text font-family="STIX Two Math" font-size="14.00" text-anchor="middle" x="658" y="-253.8"> × SB({0, 3}))</text>
<text font-family="STIX Two Math" font-size="14.00" text-anchor="middle" x="658" y="-238.8">↓</text>
<text font-family="STIX Two Math" font-size="14.00" text-anchor="middle" x="658" y="-223.8">(SB({0, 3, 6})</text>
<text font-family="STIX Two Math" font-size="14.00" text-anchor="middle" x="658" y="-208.8"> × SB({0, 3}))</text>
</g>
<!-- node12 -->
<g class="node" id="node12">
<title>node12</title>
</g>
<!-- node12&#45;&gt;node11 -->
<g class="edge" id="edge11">
<title>node12-&gt;node11</title>
<path d="M375,-444.8C375,-416.89 375,-362.07 375,-334.18" fill="none" stroke="black"></path>
<text font-family="STIX Two Math" font-size="14.00" text-anchor="middle" x="415" y="-415.8">(SB([3,21])</text>
<text font-family="STIX Two Math" font-size="14.00" text-anchor="middle" x="415" y="-400.8"> × SB([6,27]))</text>
<text font-family="STIX Two Math" font-size="14.00" text-anchor="middle" x="415" y="-385.8">↓</text>
<text font-family="STIX Two Math" font-size="14.00" text-anchor="middle" x="415" y="-370.8">(SB({0, 3, 6})</text>
<text font-family="STIX Two Math" font-size="14.00" text-anchor="middle" x="415" y="-355.8"> × SB({0, 3}))</text>
</g>
</g>
</svg>