<?xml version="1.0" encoding="UTF-8" standalone="no"?>
<!DOCTYPE svg PUBLIC "-//W3C//DTD SVG 1.1//EN" "http://www.w3.org/Graphics/SVG/1.1/DTD/svg11.dtd">

<!-- Generated by graphviz version 2.43.0 (0)
 -->
<!-- Title: G Pages: 1 -->
<svg height="250pt" viewbox="0.00 0.00 177.50 250.00" width="178pt" xmlns="http://www.w3.org/2000/svg" xmlns:xlink="http://www.w3.org/1999/xlink">
<g class="graph" id="graph0" transform="scale(1 1) rotate(0) translate(4 246)">
<title>G</title>
<polygon fill="white" points="-4,4 -4,-246 173.5,-246 173.5,4 -4,4" stroke="transparent"></polygon>
<!-- node1 -->
<g class="node" id="node1">
<title>node1</title>
</g>
<!-- node2 -->
<g class="node" id="node2">
<title>node2</title>
<path d="M89,-140C89,-140 12,-140 12,-140 6,-140 0,-134 0,-128 0,-128 0,-114 0,-114 0,-108 6,-102 12,-102 12,-102 89,-102 89,-102 95,-102 101,-108 101,-114 101,-114 101,-128 101,-128 101,-134 95,-140 89,-140" fill="none" stroke="black"></path>
<text font-family="STIX Two Math" font-size="14.00" text-anchor="middle" x="50.5" y="-124.8">DP_Catalog</text>
<text font-family="STIX Two Math" font-size="14.00" text-anchor="middle" x="50.5" y="-109.8">catalogue(f, r)</text>
</g>
<!-- node1&#45;&gt;node2 -->
<g class="edge" id="edge1">
<title>node1-&gt;node2</title>
<path d="M50.5,-205.87C50.5,-187.63 50.5,-158.89 50.5,-140.24" fill="none" stroke="black"></path>
<text font-family="STIX Two Math" font-size="14.00" text-anchor="middle" x="90.5" y="-176.8">(SB([0,45])</text>
<text font-family="STIX Two Math" font-size="14.00" text-anchor="middle" x="90.5" y="-161.8"> × SB([0,36]))</text>
</g>
<!-- node3 -->
<g class="node" id="node3">
<title>node3</title>
</g>
<!-- node2&#45;&gt;node3 -->
<g class="edge" id="edge2">
<title>node2-&gt;node3</title>
<path d="M50.5,-101.94C50.5,-83.33 50.5,-54.53 50.5,-36.23" fill="none" stroke="black"></path>
<text font-family="STIX Two Math" font-size="14.00" text-anchor="middle" x="110" y="-72.8">(SB(≥0::500) USD</text>
<text font-family="STIX Two Math" font-size="14.00" text-anchor="middle" x="110" y="-57.8"> × SB([-4500,90]::1))</text>
</g>
</g>
</svg>