<?xml version="1.0" encoding="UTF-8" standalone="no"?>
<!DOCTYPE svg PUBLIC "-//W3C//DTD SVG 1.1//EN" "http://www.w3.org/Graphics/SVG/1.1/DTD/svg11.dtd">

<!-- Generated by graphviz version 2.43.0 (0)
 -->
<!-- Title: G Pages: 1 -->
<svg height="235pt" viewbox="0.00 0.00 170.50 235.00" width="171pt" xmlns="http://www.w3.org/2000/svg" xmlns:xlink="http://www.w3.org/1999/xlink">
<g class="graph" id="graph0" transform="scale(1 1) rotate(0) translate(4 231)">
<title>G</title>
<polygon fill="white" points="-4,4 -4,-231 166.5,-231 166.5,4 -4,4" stroke="transparent"></polygon>
<!-- node1 -->
<g class="node" id="node1">
<title>node1</title>
</g>
<!-- node2 -->
<g class="node" id="node2">
<title>node2</title>
<path d="M89,-125C89,-125 12,-125 12,-125 6,-125 0,-119 0,-113 0,-113 0,-99 0,-99 0,-93 6,-87 12,-87 12,-87 89,-87 89,-87 95,-87 101,-93 101,-99 101,-99 101,-113 101,-113 101,-119 95,-125 89,-125" fill="none" stroke="black"></path>
<text font-family="STIX Two Math" font-size="14.00" text-anchor="middle" x="50.5" y="-109.8">DP_Catalog</text>
<text font-family="STIX Two Math" font-size="14.00" text-anchor="middle" x="50.5" y="-94.8">catalogue(f, r)</text>
</g>
<!-- node1&#45;&gt;node2 -->
<g class="edge" id="edge1">
<title>node1-&gt;node2</title>
<path d="M50.5,-190.87C50.5,-172.63 50.5,-143.89 50.5,-125.24" fill="none" stroke="black"></path>
<text font-family="STIX Two Math" font-size="14.00" text-anchor="middle" x="90.5" y="-161.8">(SB([3,21])</text>
<text font-family="STIX Two Math" font-size="14.00" text-anchor="middle" x="90.5" y="-146.8"> × SB([6,27]))</text>
</g>
<!-- node3 -->
<g class="node" id="node3">
<title>node3</title>
</g>
<!-- node2&#45;&gt;node3 -->
<g class="edge" id="edge2">
<title>node2-&gt;node3</title>
<path d="M50.5,-86.76C50.5,-71.77 50.5,-50.69 50.5,-36.04" fill="none" stroke="black"></path>
<text font-family="STIX Two Math" font-size="14.00" text-anchor="middle" x="106.5" y="-57.8">(SB(≥0::500) USD)</text>
</g>
</g>
</svg>