<?xml version="1.0" encoding="UTF-8" standalone="no"?>
<!DOCTYPE svg PUBLIC "-//W3C//DTD SVG 1.1//EN" "http://www.w3.org/Graphics/SVG/1.1/DTD/svg11.dtd">

<!-- Generated by graphviz version 2.43.0 (0)
 -->
<!-- Title: G Pages: 1 -->
<svg height="2474pt" viewbox="0.00 0.00 816.00 2474.00" width="816pt" xmlns="http://www.w3.org/2000/svg" xmlns:xlink="http://www.w3.org/1999/xlink">
<g class="graph" id="graph0" transform="scale(1 1) rotate(0) translate(4 2470)">
<title>G</title>
<polygon fill="white" points="-4,4 -4,-2470 812,-2470 812,4 -4,4" stroke="transparent"></polygon>
<!-- node1 -->
<g class="node" id="node1">
<title>node1</title>
</g>
<!-- node25 -->
<g class="node" id="node25">
<title>node25</title>
<text font-family="STIX Two Math" font-size="14.00" text-anchor="middle" x="681" y="-2342.3">|</text>
</g>
<!-- node1&#45;&gt;node25 -->
<g class="edge" id="edge1">
<title>node1-&gt;node25</title>
<path d="M681,-2429.58C681,-2411.23 681,-2382.5 681,-2364.22" fill="none" stroke="black"></path>
<text font-family="STIX Two Math" font-size="14.00" text-anchor="middle" x="721" y="-2400.8">(SB([0,45])</text>
<text font-family="STIX Two Math" font-size="14.00" text-anchor="middle" x="721" y="-2385.8"> × SB([0,36]))</text>
</g>
<!-- node2 -->
<g class="node" id="node2">
<title>node2</title>
<path d="M765.5,-2247C765.5,-2247 696.5,-2247 696.5,-2247 690.5,-2247 684.5,-2241 684.5,-2235 684.5,-2235 684.5,-2221 684.5,-2221 684.5,-2215 690.5,-2209 696.5,-2209 696.5,-2209 765.5,-2209 765.5,-2209 771.5,-2209 777.5,-2215 777.5,-2221 777.5,-2221 777.5,-2235 777.5,-2235 777.5,-2241 771.5,-2247 765.5,-2247" fill="none" stroke="black"></path>
<text font-family="STIX Two Math" font-size="14.00" text-anchor="middle" x="731" y="-2231.8">DP_Mux</text>
<text font-family="STIX Two Math" font-size="14.00" text-anchor="middle" x="731" y="-2216.8">f ⟼ mux(f)</text>
</g>
<!-- node3 -->
<g class="node" id="node3">
<title>node3</title>
<text font-family="STIX Two Math" font-size="14.00" text-anchor="middle" x="445" y="-2106.3">|</text>
</g>
<!-- node2&#45;&gt;node3 -->
<g class="edge" id="edge2">
<title>node2-&gt;node3</title>
<path d="M686.31,-2208.88C626.3,-2184.53 521.51,-2142.03 472.16,-2122.02" fill="none" stroke="black"></path>
<text font-family="STIX Two Math" font-size="14.00" text-anchor="middle" x="685" y="-2179.8">(SB([0,45])</text>
<text font-family="STIX Two Math" font-size="14.00" text-anchor="middle" x="685" y="-2164.8"> × SB([0,36])</text>
<text font-family="STIX Two Math" font-size="14.00" text-anchor="middle" x="685" y="-2149.8"> × SB(≥0) USD)</text>
</g>
<!-- node5 -->
<g class="node" id="node5">
<title>node5</title>
<path d="M326,-1985C326,-1985 294,-1985 294,-1985 288,-1985 282,-1979 282,-1973 282,-1973 282,-1959 282,-1959 282,-1953 288,-1947 294,-1947 294,-1947 326,-1947 326,-1947 332,-1947 338,-1953 338,-1959 338,-1959 338,-1973 338,-1973 338,-1979 332,-1985 326,-1985" fill="none" stroke="black"></path>
<text font-family="STIX Two Math" font-size="14.00" text-anchor="middle" x="310" y="-1969.8">DP_Id</text>
<text font-family="STIX Two Math" font-size="14.00" text-anchor="middle" x="310" y="-1954.8">f ≤ r</text>
</g>
<!-- node3&#45;&gt;node5 -->
<g class="edge" id="edge3">
<title>node3-&gt;node5</title>
<path d="M417.98,-2106.48C395.05,-2102.94 362.8,-2094.44 343,-2074 319.33,-2049.57 312.6,-2008.54 310.71,-1985.02" fill="none" stroke="black"></path>
<text font-family="STIX Two Math" font-size="14.00" text-anchor="middle" x="373" y="-2062.8">SB([0,45])</text>
</g>
<!-- node6 -->
<g class="node" id="node6">
<title>node6</title>
<path d="M413,-1985C413,-1985 381,-1985 381,-1985 375,-1985 369,-1979 369,-1973 369,-1973 369,-1959 369,-1959 369,-1953 375,-1947 381,-1947 381,-1947 413,-1947 413,-1947 419,-1947 425,-1953 425,-1959 425,-1959 425,-1973 425,-1973 425,-1979 419,-1985 413,-1985" fill="none" stroke="black"></path>
<text font-family="STIX Two Math" font-size="14.00" text-anchor="middle" x="397" y="-1969.8">DP_Id</text>
<text font-family="STIX Two Math" font-size="14.00" text-anchor="middle" x="397" y="-1954.8">f ≤ r</text>
</g>
<!-- node3&#45;&gt;node6 -->
<g class="edge" id="edge4">
<title>node3-&gt;node6</title>
<path d="M424.78,-2091.76C419.85,-2086.55 415.11,-2080.47 412,-2074 398.2,-2045.25 396.11,-2007.5 396.27,-1985.38" fill="none" stroke="black"></path>
<text font-family="STIX Two Math" font-size="14.00" text-anchor="middle" x="442" y="-2062.8">SB([0,36])</text>
</g>
<!-- node7 -->
<g class="node" id="node7">
<title>node7</title>
<path d="M599,-2041C599,-2041 443,-2041 443,-2041 437,-2041 431,-2035 431,-2029 431,-2029 431,-2015 431,-2015 431,-2009 437,-2003 443,-2003 443,-2003 599,-2003 599,-2003 605,-2003 611,-2009 611,-2015 611,-2015 611,-2029 611,-2029 611,-2035 605,-2041 599,-2041" fill="none" stroke="black"></path>
<text font-family="STIX Two Math" font-size="14.00" text-anchor="middle" x="521" y="-2025.8">M_Fun_MultiplyMany_DP</text>
<text font-family="STIX Two Math" font-size="14.00" text-anchor="middle" x="521" y="-2010.8">f ≤ r₁⋅r₂</text>
</g>
<!-- node3&#45;&gt;node7 -->
<g class="edge" id="edge5">
<title>node3-&gt;node7</title>
<path d="M460.38,-2091.6C473.31,-2076.97 491.72,-2056.13 504.86,-2041.27" fill="none" stroke="black"></path>
<text font-family="STIX Two Math" font-size="14.00" text-anchor="middle" x="524" y="-2062.8">SB(≥0) USD</text>
</g>
<!-- node4 -->
<g class="node" id="node4">
<title>node4</title>
<text font-family="STIX Two Math" font-size="14.00" text-anchor="middle" x="339" y="-1803.3">|</text>
</g>
<!-- node9 -->
<g class="node" id="node9">
<title>node9</title>
<path d="M290.5,-1693C290.5,-1693 221.5,-1693 221.5,-1693 215.5,-1693 209.5,-1687 209.5,-1681 209.5,-1681 209.5,-1667 209.5,-1667 209.5,-1661 215.5,-1655 221.5,-1655 221.5,-1655 290.5,-1655 290.5,-1655 296.5,-1655 302.5,-1661 302.5,-1667 302.5,-1667 302.5,-1681 302.5,-1681 302.5,-1687 296.5,-1693 290.5,-1693" fill="none" stroke="black"></path>
<text font-family="STIX Two Math" font-size="14.00" text-anchor="middle" x="256" y="-1677.8">DP_Mux</text>
<text font-family="STIX Two Math" font-size="14.00" text-anchor="middle" x="256" y="-1662.8">f ⟼ mux(f)</text>
</g>
<!-- node4&#45;&gt;node9 -->
<g class="edge" id="edge6">
<title>node4-&gt;node9</title>
<path d="M328.15,-1788.87C312.51,-1764.18 283.74,-1718.78 267.66,-1693.4" fill="none" stroke="black"></path>
<text font-family="STIX Two Math" font-size="14.00" text-anchor="middle" x="369" y="-1759.8">(SB([0,45])</text>
<text font-family="STIX Two Math" font-size="14.00" text-anchor="middle" x="369" y="-1744.8"> × SB([0,36])</text>
<text font-family="STIX Two Math" font-size="14.00" text-anchor="middle" x="369" y="-1729.8"> × (SB(≥0) $</text>
<text font-family="STIX Two Math" font-size="14.00" text-anchor="middle" x="369" y="-1714.8"> × {0,20,5,10,30}))</text>
</g>
<!-- node5&#45;&gt;node4 -->
<g class="edge" id="edge7">
<title>node5-&gt;node4</title>
<path d="M306.17,-1946.89C303.6,-1931.8 301.29,-1909.82 305,-1891 309.69,-1867.17 321.29,-1841.56 329.64,-1825.19" fill="none" stroke="black"></path>
<text font-family="STIX Two Math" font-size="14.00" text-anchor="middle" x="335" y="-1906.3">SB([0,45])</text>
</g>
<!-- node6&#45;&gt;node4 -->
<g class="edge" id="edge8">
<title>node6-&gt;node4</title>
<path d="M390.35,-1946.99C379.1,-1916.54 356.47,-1855.3 345.4,-1825.32" fill="none" stroke="black"></path>
<text font-family="STIX Two Math" font-size="14.00" text-anchor="middle" x="414" y="-1906.3">SB([0,36])</text>
</g>
<!-- node8 -->
<g class="node" id="node8">
<title>node8</title>
<path d="M575,-1929C575,-1929 477,-1929 477,-1929 471,-1929 465,-1923 465,-1917 465,-1917 465,-1903 465,-1903 465,-1897 471,-1891 477,-1891 477,-1891 575,-1891 575,-1891 581,-1891 587,-1897 587,-1903 587,-1903 587,-1917 587,-1917 587,-1923 581,-1929 575,-1929" fill="none" stroke="black"></path>
<text font-family="STIX Two Math" font-size="14.00" text-anchor="middle" x="526" y="-1913.8">DP_L_LME</text>
<text font-family="STIX Two Math" font-size="14.00" text-anchor="middle" x="526" y="-1898.8">f ≤ ⟨r₁,entries[r₂]⟩</text>
</g>
<!-- node7&#45;&gt;node8 -->
<g class="edge" id="edge9">
<title>node7-&gt;node8</title>
<path d="M521.83,-2002.84C522.75,-1982.45 524.25,-1949.58 525.17,-1929.19" fill="none" stroke="black"></path>
<text font-family="STIX Two Math" font-size="14.00" text-anchor="middle" x="582.5" y="-1969.8">(SB(≥0) $</text>
<text font-family="STIX Two Math" font-size="14.00" text-anchor="middle" x="582.5" y="-1954.8"> × {0,1,1.5,0.25,0.5})</text>
</g>
<!-- node8&#45;&gt;node4 -->
<g class="edge" id="edge10">
<title>node8-&gt;node4</title>
<path d="M492.57,-1890.94C456.43,-1871.42 399.53,-1840.69 366.08,-1822.63" fill="none" stroke="black"></path>
<text font-family="STIX Two Math" font-size="14.00" text-anchor="middle" x="504.5" y="-1861.8">(SB(≥0) $</text>
<text font-family="STIX Two Math" font-size="14.00" text-anchor="middle" x="504.5" y="-1846.8"> × {0,20,5,10,30})</text>
</g>
<!-- node10 -->
<g class="node" id="node10">
<title>node10</title>
<text font-family="STIX Two Math" font-size="14.00" text-anchor="middle" x="235" y="-1537.3">|</text>
</g>
<!-- node9&#45;&gt;node10 -->
<g class="edge" id="edge11">
<title>node9-&gt;node10</title>
<path d="M253.08,-1654.79C249.02,-1629.48 241.73,-1584 237.76,-1559.23" fill="none" stroke="black"></path>
<text font-family="STIX Two Math" font-size="14.00" text-anchor="middle" x="302" y="-1625.8">(SB(≥0) $</text>
<text font-family="STIX Two Math" font-size="14.00" text-anchor="middle" x="302" y="-1610.8"> × (SB([0,36])</text>
<text font-family="STIX Two Math" font-size="14.00" text-anchor="middle" x="302" y="-1595.8"> × SB([0,45])</text>
<text font-family="STIX Two Math" font-size="14.00" text-anchor="middle" x="302" y="-1580.8"> × {0,20,5,10,30}))</text>
</g>
<!-- node12 -->
<g class="node" id="node12">
<title>node12</title>
<path d="M154,-1442C154,-1442 122,-1442 122,-1442 116,-1442 110,-1436 110,-1430 110,-1430 110,-1416 110,-1416 110,-1410 116,-1404 122,-1404 122,-1404 154,-1404 154,-1404 160,-1404 166,-1410 166,-1416 166,-1416 166,-1430 166,-1430 166,-1436 160,-1442 154,-1442" fill="none" stroke="black"></path>
<text font-family="STIX Two Math" font-size="14.00" text-anchor="middle" x="138" y="-1426.8">DP_Id</text>
<text font-family="STIX Two Math" font-size="14.00" text-anchor="middle" x="138" y="-1411.8">f ≤ r</text>
</g>
<!-- node10&#45;&gt;node12 -->
<g class="edge" id="edge12">
<title>node10-&gt;node12</title>
<path d="M207.77,-1527.4C197.49,-1521.66 186.29,-1514.09 178,-1505 161.2,-1486.57 149.84,-1459.79 143.64,-1442.14" fill="none" stroke="black"></path>
<text font-family="STIX Two Math" font-size="14.00" text-anchor="middle" x="204.5" y="-1478.8">SB(≥0) $</text>
</g>
<!-- node13 -->
<g class="node" id="node13">
<title>node13</title>
<path d="M273.5,-1442C273.5,-1442 196.5,-1442 196.5,-1442 190.5,-1442 184.5,-1436 184.5,-1430 184.5,-1430 184.5,-1416 184.5,-1416 184.5,-1410 190.5,-1404 196.5,-1404 196.5,-1404 273.5,-1404 273.5,-1404 279.5,-1404 285.5,-1410 285.5,-1416 285.5,-1416 285.5,-1430 285.5,-1430 285.5,-1436 279.5,-1442 273.5,-1442" fill="none" stroke="black"></path>
<text font-family="STIX Two Math" font-size="14.00" text-anchor="middle" x="235" y="-1426.8">DP_Catalog</text>
<text font-family="STIX Two Math" font-size="14.00" text-anchor="middle" x="235" y="-1411.8">catalogue(f, r)</text>
</g>
<!-- node10&#45;&gt;node13 -->
<g class="edge" id="edge13">
<title>node10-&gt;node13</title>
<path d="M235,-1522.88C235,-1501.33 235,-1464.45 235,-1442.34" fill="none" stroke="black"></path>
<text font-family="STIX Two Math" font-size="14.00" text-anchor="middle" x="284.5" y="-1493.8">(SB([0,36])</text>
<text font-family="STIX Two Math" font-size="14.00" text-anchor="middle" x="284.5" y="-1478.8"> × SB([0,45])</text>
<text font-family="STIX Two Math" font-size="14.00" text-anchor="middle" x="284.5" y="-1463.8"> × {0,20,5,10,30})</text>
</g>
<!-- node11 -->
<g class="node" id="node11">
<title>node11</title>
<text font-family="STIX Two Math" font-size="14.00" text-anchor="middle" x="138" y="-1301.3">|</text>
</g>
<!-- node14 -->
<g class="node" id="node14">
<title>node14</title>
<path d="M167.5,-1191C167.5,-1191 98.5,-1191 98.5,-1191 92.5,-1191 86.5,-1185 86.5,-1179 86.5,-1179 86.5,-1165 86.5,-1165 86.5,-1159 92.5,-1153 98.5,-1153 98.5,-1153 167.5,-1153 167.5,-1153 173.5,-1153 179.5,-1159 179.5,-1165 179.5,-1165 179.5,-1179 179.5,-1179 179.5,-1185 173.5,-1191 167.5,-1191" fill="none" stroke="black"></path>
<text font-family="STIX Two Math" font-size="14.00" text-anchor="middle" x="133" y="-1175.8">DP_Mux</text>
<text font-family="STIX Two Math" font-size="14.00" text-anchor="middle" x="133" y="-1160.8">f ⟼ mux(f)</text>
</g>
<!-- node11&#45;&gt;node14 -->
<g class="edge" id="edge14">
<title>node11-&gt;node14</title>
<path d="M137.35,-1286.87C136.4,-1262.18 134.67,-1216.78 133.7,-1191.4" fill="none" stroke="black"></path>
<text font-family="STIX Two Math" font-size="14.00" text-anchor="middle" x="199" y="-1257.8">(SB(≥0) $</text>
<text font-family="STIX Two Math" font-size="14.00" text-anchor="middle" x="199" y="-1242.8"> × (SB({0, 3, 6, 9})</text>
<text font-family="STIX Two Math" font-size="14.00" text-anchor="middle" x="199" y="-1227.8"> × {0,9,3}</text>
<text font-family="STIX Two Math" font-size="14.00" text-anchor="middle" x="199" y="-1212.8"> × SB([-4500,90]::1)))</text>
</g>
<!-- node12&#45;&gt;node11 -->
<g class="edge" id="edge15">
<title>node12-&gt;node11</title>
<path d="M138,-1403.88C138,-1381.83 138,-1344.88 138,-1323.24" fill="none" stroke="black"></path>
<text font-family="STIX Two Math" font-size="14.00" text-anchor="middle" x="164.5" y="-1359.8">SB(≥0) $</text>
</g>
<!-- node13&#45;&gt;node11 -->
<g class="edge" id="edge16">
<title>node13-&gt;node11</title>
<path d="M229.36,-1403.86C223.16,-1386.21 211.8,-1359.43 195,-1341 186.71,-1331.91 175.51,-1324.34 165.23,-1318.6" fill="none" stroke="black"></path>
<text font-family="STIX Two Math" font-size="14.00" text-anchor="middle" x="281.5" y="-1374.8">(SB({0, 3, 6, 9})</text>
<text font-family="STIX Two Math" font-size="14.00" text-anchor="middle" x="281.5" y="-1359.8"> × {0,9,3}</text>
<text font-family="STIX Two Math" font-size="14.00" text-anchor="middle" x="281.5" y="-1344.8"> × SB([-4500,90]::1))</text>
</g>
<!-- node15 -->
<g class="node" id="node15">
<title>node15</title>
<path d="M211.5,-1057C211.5,-1057 44.5,-1057 44.5,-1057 38.5,-1057 32.5,-1051 32.5,-1045 32.5,-1045 32.5,-1031 32.5,-1031 32.5,-1025 38.5,-1019 44.5,-1019 44.5,-1019 211.5,-1019 211.5,-1019 217.5,-1019 223.5,-1025 223.5,-1031 223.5,-1031 223.5,-1045 223.5,-1045 223.5,-1051 217.5,-1057 211.5,-1057" fill="none" stroke="black"></path>
<text font-family="STIX Two Math" font-size="14.00" text-anchor="middle" x="128" y="-1041.8">DP_L_UME</text>
<text font-family="STIX Two Math" font-size="14.00" text-anchor="middle" x="128" y="-1026.8">⟨f₁,entries[f₂],f₃,f₄ ⋅ 10000⟩ ≤ r</text>
</g>
<!-- node14&#45;&gt;node15 -->
<g class="edge" id="edge17">
<title>node14-&gt;node15</title>
<path d="M132.32,-1152.92C131.36,-1127.79 129.65,-1082.53 128.69,-1057.28" fill="none" stroke="black"></path>
<text font-family="STIX Two Math" font-size="14.00" text-anchor="middle" x="189" y="-1123.8">(SB(≥0) $</text>
<text font-family="STIX Two Math" font-size="14.00" text-anchor="middle" x="189" y="-1108.8"> × {0,9,3}</text>
<text font-family="STIX Two Math" font-size="14.00" text-anchor="middle" x="189" y="-1093.8"> × SB([-4500,90]::1)</text>
<text font-family="STIX Two Math" font-size="14.00" text-anchor="middle" x="189" y="-1078.8"> × SB({0, 3, 6, 9}))</text>
</g>
<!-- node16 -->
<g class="node" id="node16">
<title>node16</title>
<path d="M162.5,-923C162.5,-923 93.5,-923 93.5,-923 87.5,-923 81.5,-917 81.5,-911 81.5,-911 81.5,-897 81.5,-897 81.5,-891 87.5,-885 93.5,-885 93.5,-885 162.5,-885 162.5,-885 168.5,-885 174.5,-891 174.5,-897 174.5,-897 174.5,-911 174.5,-911 174.5,-917 168.5,-923 162.5,-923" fill="none" stroke="black"></path>
<text font-family="STIX Two Math" font-size="14.00" text-anchor="middle" x="128" y="-907.8">DP_Mux</text>
<text font-family="STIX Two Math" font-size="14.00" text-anchor="middle" x="128" y="-892.8">f ⟼ mux(f)</text>
</g>
<!-- node15&#45;&gt;node16 -->
<g class="edge" id="edge18">
<title>node15-&gt;node16</title>
<path d="M128,-1018.92C128,-993.79 128,-948.53 128,-923.28" fill="none" stroke="black"></path>
<text font-family="STIX Two Math" font-size="14.00" text-anchor="middle" x="235.5" y="-989.8">(SB(≥0) $</text>
<text font-family="STIX Two Math" font-size="14.00" text-anchor="middle" x="235.5" y="-974.8"> × {0,9000,27000} USD</text>
<text font-family="STIX Two Math" font-size="14.00" text-anchor="middle" x="235.5" y="-959.8"> × SB([-4500,90]::1)</text>
<text font-family="STIX Two Math" font-size="14.00" text-anchor="middle" x="235.5" y="-944.8"> × SB({0, 30000, 60000, 90000}) USD)</text>
</g>
<!-- node17 -->
<g class="node" id="node17">
<title>node17</title>
<text font-family="STIX Two Math" font-size="14.00" text-anchor="middle" x="128" y="-767.3">|</text>
</g>
<!-- node16&#45;&gt;node17 -->
<g class="edge" id="edge19">
<title>node16-&gt;node17</title>
<path d="M128,-884.79C128,-859.48 128,-814 128,-789.23" fill="none" stroke="black"></path>
<text font-family="STIX Two Math" font-size="14.00" text-anchor="middle" x="235.5" y="-855.8">(SB(≥0) $</text>
<text font-family="STIX Two Math" font-size="14.00" text-anchor="middle" x="235.5" y="-840.8"> × SB([-4500,90]::1)</text>
<text font-family="STIX Two Math" font-size="14.00" text-anchor="middle" x="235.5" y="-825.8"> × (SB({0, 30000, 60000, 90000}) USD</text>
<text font-family="STIX Two Math" font-size="14.00" text-anchor="middle" x="235.5" y="-810.8"> × {0,9000,27000} USD))</text>
</g>
<!-- node19 -->
<g class="node" id="node19">
<title>node19</title>
<path d="M44,-631C44,-631 12,-631 12,-631 6,-631 0,-625 0,-619 0,-619 0,-605 0,-605 0,-599 6,-593 12,-593 12,-593 44,-593 44,-593 50,-593 56,-599 56,-605 56,-605 56,-619 56,-619 56,-625 50,-631 44,-631" fill="none" stroke="black"></path>
<text font-family="STIX Two Math" font-size="14.00" text-anchor="middle" x="28" y="-615.8">DP_Id</text>
<text font-family="STIX Two Math" font-size="14.00" text-anchor="middle" x="28" y="-600.8">f ≤ r</text>
</g>
<!-- node17&#45;&gt;node19 -->
<g class="edge" id="edge20">
<title>node17-&gt;node19</title>
<path d="M100.8,-766.71C80.66,-762.75 54.34,-754.05 40,-735 17.09,-704.56 20.35,-657.04 24.39,-631.21" fill="none" stroke="black"></path>
<text font-family="STIX Two Math" font-size="14.00" text-anchor="middle" x="66.5" y="-716.3">SB(≥0) $</text>
</g>
<!-- node20 -->
<g class="node" id="node20">
<title>node20</title>
<path d="M126,-519C126,-519 94,-519 94,-519 88,-519 82,-513 82,-507 82,-507 82,-493 82,-493 82,-487 88,-481 94,-481 94,-481 126,-481 126,-481 132,-481 138,-487 138,-493 138,-493 138,-507 138,-507 138,-513 132,-519 126,-519" fill="none" stroke="black"></path>
<text font-family="STIX Two Math" font-size="14.00" text-anchor="middle" x="110" y="-503.8">DP_Id</text>
<text font-family="STIX Two Math" font-size="14.00" text-anchor="middle" x="110" y="-488.8">f ≤ r</text>
</g>
<!-- node17&#45;&gt;node20 -->
<g class="edge" id="edge21">
<title>node17-&gt;node20</title>
<path d="M124.96,-752.9C122.12,-736.16 118.02,-709.92 116,-687 110.6,-625.69 109.91,-552.63 109.92,-519.26" fill="none" stroke="black"></path>
<text font-family="STIX Two Math" font-size="14.00" text-anchor="middle" x="165.5" y="-664.3">SB([-4500,90]::1)</text>
</g>
<!-- node21 -->
<g class="node" id="node21">
<title>node21</title>
<path d="M362,-687C362,-687 236,-687 236,-687 230,-687 224,-681 224,-675 224,-675 224,-661 224,-661 224,-655 230,-649 236,-649 236,-649 362,-649 362,-649 368,-649 374,-655 374,-661 374,-661 374,-675 374,-675 374,-681 368,-687 362,-687" fill="none" stroke="black"></path>
<text font-family="STIX Two Math" font-size="14.00" text-anchor="middle" x="299" y="-671.8">M_Res_AddMany_DP</text>
<text font-family="STIX Two Math" font-size="14.00" text-anchor="middle" x="299" y="-656.8">f₁ + f₂ ≤ r</text>
</g>
<!-- node17&#45;&gt;node21 -->
<g class="edge" id="edge22">
<title>node17-&gt;node21</title>
<path d="M155.1,-754C185.89,-735.81 236.05,-706.18 268.28,-687.15" fill="none" stroke="black"></path>
<text font-family="STIX Two Math" font-size="14.00" text-anchor="middle" x="334" y="-723.8">(SB({0, 30000, 60000, 90000}) USD</text>
<text font-family="STIX Two Math" font-size="14.00" text-anchor="middle" x="334" y="-708.8"> × {0,9000,27000} USD)</text>
</g>
<!-- node18 -->
<g class="node" id="node18">
<title>node18</title>
<text font-family="STIX Two Math" font-size="14.00" text-anchor="middle" x="113" y="-352.3">|</text>
</g>
<!-- node24 -->
<g class="node" id="node24">
<title>node24</title>
<path d="M418.5,-257C418.5,-257 349.5,-257 349.5,-257 343.5,-257 337.5,-251 337.5,-245 337.5,-245 337.5,-231 337.5,-231 337.5,-225 343.5,-219 349.5,-219 349.5,-219 418.5,-219 418.5,-219 424.5,-219 430.5,-225 430.5,-231 430.5,-231 430.5,-245 430.5,-245 430.5,-251 424.5,-257 418.5,-257" fill="none" stroke="black"></path>
<text font-family="STIX Two Math" font-size="14.00" text-anchor="middle" x="384" y="-241.8">DP_Mux</text>
<text font-family="STIX Two Math" font-size="14.00" text-anchor="middle" x="384" y="-226.8">f ⟼ mux(f)</text>
</g>
<!-- node18&#45;&gt;node24 -->
<g class="edge" id="edge23">
<title>node18-&gt;node24</title>
<path d="M140.23,-343.35C187.61,-323.07 285.53,-281.15 341.78,-257.07" fill="none" stroke="black"></path>
<text font-family="STIX Two Math" font-size="14.00" text-anchor="middle" x="354" y="-308.8">(SB(≥0) $</text>
<text font-family="STIX Two Math" font-size="14.00" text-anchor="middle" x="354" y="-293.8"> × SB([-4500,90]::1)</text>
<text font-family="STIX Two Math" font-size="14.00" text-anchor="middle" x="354" y="-278.8"> × SB(≥0) USD)</text>
</g>
<!-- node19&#45;&gt;node18 -->
<g class="edge" id="edge24">
<title>node19-&gt;node18</title>
<path d="M22.68,-592.78C16.11,-567.12 7.27,-519.18 20,-481 34.64,-437.09 71.59,-396.21 94.26,-374.11" fill="none" stroke="black"></path>
<text font-family="STIX Two Math" font-size="14.00" text-anchor="middle" x="46.5" y="-496.3">SB(≥0) $</text>
</g>
<!-- node20&#45;&gt;node18 -->
<g class="edge" id="edge25">
<title>node20-&gt;node18</title>
<path d="M103.33,-480.93C101.56,-475.27 99.89,-468.95 99,-463 94.34,-431.79 102.04,-395.29 107.74,-374.28" fill="none" stroke="black"></path>
<text font-family="STIX Two Math" font-size="14.00" text-anchor="middle" x="148.5" y="-440.3">SB([-4500,90]::1)</text>
</g>
<!-- node22 -->
<g class="node" id="node22">
<title>node22</title>
<path d="M278.5,-575C278.5,-575 165.5,-575 165.5,-575 159.5,-575 153.5,-569 153.5,-563 153.5,-563 153.5,-549 153.5,-549 153.5,-543 159.5,-537 165.5,-537 165.5,-537 278.5,-537 278.5,-537 284.5,-537 290.5,-543 290.5,-549 290.5,-549 290.5,-563 290.5,-563 290.5,-569 284.5,-575 278.5,-575" fill="none" stroke="black"></path>
<text font-family="STIX Two Math" font-size="14.00" text-anchor="middle" x="222" y="-559.8">AmbientConversion</text>
<text font-family="STIX Two Math" font-size="14.00" text-anchor="middle" x="222" y="-544.8">f ≤ r</text>
</g>
<!-- node21&#45;&gt;node22 -->
<g class="edge" id="edge26">
<title>node21-&gt;node22</title>
<path d="M223.93,-651.38C204.73,-645.8 187.84,-638.91 182,-631 171.97,-617.41 175.13,-608.43 182,-593 184.96,-586.34 189.84,-580.4 195.18,-575.36" fill="none" stroke="black"></path>
<text font-family="STIX Two Math" font-size="14.00" text-anchor="middle" x="412" y="-608.3">{0,60000,27000,9000,57000,69000,117000,99000,30000,90000,87000,39000} USD</text>
</g>
<!-- node23 -->
<g class="node" id="node23">
<title>node23</title>
<path d="M332.5,-463C332.5,-463 219.5,-463 219.5,-463 213.5,-463 207.5,-457 207.5,-451 207.5,-451 207.5,-437 207.5,-437 207.5,-431 213.5,-425 219.5,-425 219.5,-425 332.5,-425 332.5,-425 338.5,-425 344.5,-431 344.5,-437 344.5,-437 344.5,-451 344.5,-451 344.5,-457 338.5,-463 332.5,-463" fill="none" stroke="black"></path>
<text font-family="STIX Two Math" font-size="14.00" text-anchor="middle" x="276" y="-447.8">AmbientConversion</text>
<text font-family="STIX Two Math" font-size="14.00" text-anchor="middle" x="276" y="-432.8">f ≤ r</text>
</g>
<!-- node22&#45;&gt;node23 -->
<g class="edge" id="edge27">
<title>node22-&gt;node23</title>
<path d="M230.92,-536.84C240.92,-516.45 257.06,-483.58 267.07,-463.19" fill="none" stroke="black"></path>
<text font-family="STIX Two Math" font-size="14.00" text-anchor="middle" x="333" y="-496.3">SB([0,117000]::3000) USD</text>
</g>
<!-- node23&#45;&gt;node18 -->
<g class="edge" id="edge28">
<title>node23-&gt;node18</title>
<path d="M241.83,-424.97C211.58,-409.01 168.03,-386.03 140.12,-371.31" fill="none" stroke="black"></path>
<text font-family="STIX Two Math" font-size="14.00" text-anchor="middle" x="242" y="-395.8">SB(≥0) USD</text>
</g>
<!-- node26 -->
<g class="node" id="node26">
<title>node26</title>
<text font-family="STIX Two Math" font-size="14.00" text-anchor="middle" x="543" y="-116.3">|</text>
</g>
<!-- node24&#45;&gt;node26 -->
<g class="edge" id="edge29">
<title>node24-&gt;node26</title>
<path d="M408.84,-218.88C439.15,-196.76 490,-159.67 519.62,-138.05" fill="none" stroke="black"></path>
<text font-family="STIX Two Math" font-size="14.00" text-anchor="middle" x="550.5" y="-189.8">((SB(≥0) $</text>
<text font-family="STIX Two Math" font-size="14.00" text-anchor="middle" x="550.5" y="-174.8"> × SB([-4500,90]::1))</text>
<text font-family="STIX Two Math" font-size="14.00" text-anchor="middle" x="550.5" y="-159.8"> × SB(≥0) USD)</text>
</g>
<!-- node25&#45;&gt;node2 -->
<g class="edge" id="edge30">
<title>node25-&gt;node2</title>
<path d="M688.38,-2327.88C697.67,-2306.33 713.56,-2269.45 723.1,-2247.34" fill="none" stroke="black"></path>
<text font-family="STIX Two Math" font-size="14.00" text-anchor="middle" x="761" y="-2298.8">((SB([0,45])</text>
<text font-family="STIX Two Math" font-size="14.00" text-anchor="middle" x="761" y="-2283.8"> × SB([0,36]))</text>
<text font-family="STIX Two Math" font-size="14.00" text-anchor="middle" x="761" y="-2268.8"> × SB(≥0) USD)</text>
</g>
<!-- node26&#45;&gt;node25 -->
<g class="edge" id="edge31">
<title>node26:s-&gt;node25:sw</title>
<path d="M543,-101C543,-88.99 559.25,-96.65 570,-102 633.68,-133.71 656,-165.86 656,-237 656,-2229 656,-2229 656,-2229 656,-2273.11 631.81,-2296.81 663,-2328" fill="none" stroke="red"></path>
<text font-family="STIX Two Math" font-size="14.00" text-anchor="middle" x="693" y="-1235.3">SB(≥0) USD</text>
</g>
<!-- node27 -->
<g class="node" id="node27">
<title>node27</title>
</g>
<!-- node26&#45;&gt;node27 -->
<g class="edge" id="edge32">
<title>node26-&gt;node27</title>
<path d="M543,-101.58C543,-83.23 543,-54.5 543,-36.22" fill="none" stroke="black"></path>
<text font-family="STIX Two Math" font-size="14.00" text-anchor="middle" x="602.5" y="-72.8">(SB(≥0) $</text>
<text font-family="STIX Two Math" font-size="14.00" text-anchor="middle" x="602.5" y="-57.8"> × SB([-4500,90]::1))</text>
</g>
</g>
</svg>